# Blender v2.82 (sub 7) OBJ File: ''
# www.blender.org
mtllib posteriore_sinistra.mtl
o wheelbl_Cylinder.002
v 0.232378 0.594250 0.000431
v -0.151593 0.594250 -0.000281
v -0.152144 0.514636 0.296844
v 0.231828 0.514636 0.297555
v -0.152547 0.297125 0.514355
v 0.231425 0.297125 0.515066
v -0.152694 -0.000000 0.593968
v 0.231277 -0.000000 0.594679
v -0.152547 -0.297125 0.514354
v 0.231425 -0.297125 0.515066
v -0.152144 -0.514636 0.296844
v 0.231828 -0.514636 0.297555
v -0.151593 -0.594251 -0.000281
v 0.232378 -0.594251 0.000430
v -0.151043 -0.514636 -0.297405
v 0.232928 -0.514636 -0.296694
v -0.150641 -0.297126 -0.514916
v 0.233331 -0.297126 -0.514205
v -0.150493 -0.000001 -0.594530
v 0.233478 -0.000001 -0.593818
v -0.150641 0.297125 -0.514916
v 0.233331 0.297125 -0.514205
v -0.248726 -0.000000 0.461696
v -0.248611 -0.231078 0.399779
v -0.151043 0.514636 -0.297406
v 0.232928 0.514636 -0.296695
v -0.248611 0.231078 0.399779
v -0.248532 0.206405 0.357045
v -0.248635 -0.000000 0.412351
v -0.247442 0.400239 -0.231537
v -0.247870 0.462156 -0.000459
v -0.248298 0.400239 0.230618
v -0.247129 0.231078 -0.400697
v -0.247015 0.000000 -0.462614
v -0.247129 -0.231078 -0.400697
v -0.247442 -0.400239 -0.231537
v -0.247870 -0.462156 -0.000459
v -0.248298 -0.400239 0.230618
v -0.175277 0.206405 0.357181
v -0.175380 -0.000000 0.412486
v -0.247106 0.000000 -0.413270
v -0.247208 0.206405 -0.357964
v -0.247870 -0.412811 -0.000459
v -0.247488 -0.357505 -0.206864
v -0.248532 -0.206406 0.357045
v -0.247488 0.357504 -0.206864
v -0.247870 0.412811 -0.000459
v -0.248253 0.357505 0.205947
v -0.247208 -0.206406 -0.357964
v -0.248253 -0.357505 0.205947
v -0.174614 -0.412811 -0.000324
v -0.174997 -0.357505 0.206082
v -0.174902 -0.268838 0.154889
v -0.174614 -0.310427 -0.000324
v -0.173850 0.000000 -0.413134
v -0.173953 0.206405 -0.357828
v -0.174232 -0.357505 -0.206728
v -0.175276 -0.206406 0.357181
v -0.174233 0.357504 -0.206729
v -0.174615 0.412811 -0.000324
v -0.174998 0.357505 0.206082
v -0.173952 -0.206406 -0.357828
v -0.231734 -0.268838 0.154784
v -0.231446 -0.310427 -0.000429
v -0.175113 0.155213 0.268513
v -0.175191 -0.000000 0.310103
v -0.174041 0.000000 -0.310749
v -0.174118 0.155213 -0.269160
v -0.174326 -0.268838 -0.155537
v -0.175113 -0.155214 0.268513
v -0.174327 0.268837 -0.155536
v -0.174615 0.310426 -0.000324
v -0.174903 0.268837 0.154889
v -0.174117 -0.155214 -0.269160
v -0.231945 0.155213 0.268408
v -0.232021 -0.000000 0.309998
v -0.230872 0.000000 -0.310854
v -0.230949 0.155213 -0.269265
v -0.231158 -0.268838 -0.155642
v -0.231945 -0.155214 0.268408
v -0.231159 0.268837 -0.155641
v -0.231446 0.310426 -0.000429
v -0.231734 0.268837 0.154784
v -0.230949 -0.155214 -0.269265
vn -0.0005 0.9659 0.2588
vn -0.0013 0.7071 0.7071
vn -0.0018 0.2588 0.9659
vn -0.0018 -0.2588 0.9659
vn -0.0013 -0.7071 0.7071
vn -0.0005 -0.9659 0.2588
vn 0.0005 -0.9659 -0.2588
vn 0.0013 -0.7071 -0.7071
vn 0.0018 -0.2588 -0.9659
vn 0.0018 0.2588 -0.9659
vn -0.7993 -0.1559 0.5803
vn 0.0013 0.7071 -0.7071
vn 0.0005 0.9659 -0.2588
vn 1.0000 0.0000 0.0019
vn -1.0000 -0.0000 -0.0018
vn -0.7980 0.5818 -0.1574
vn -0.7985 0.5818 0.1544
vn -0.7993 0.1559 0.5803
vn -0.7975 0.4259 -0.4274
vn -0.7990 0.4259 0.4244
vn -0.7972 0.1559 -0.5833
vn -0.7972 -0.1559 -0.5833
vn -0.7975 -0.4259 -0.4274
vn -0.7980 -0.5818 -0.1574
vn -0.7985 -0.5818 0.1544
vn -0.7990 -0.4259 0.4244
vn -1.0000 -0.0000 -0.0019
usemtl tire.001
s 1
f 1//1 2//1 3//1 4//1
f 4//2 3//2 5//2 6//2
f 6//3 5//3 7//3 8//3
f 8//4 7//4 9//4 10//4
f 10//5 9//5 11//5 12//5
f 12//6 11//6 13//6 14//6
f 14//7 13//7 15//7 16//7
f 16//8 15//8 17//8 18//8
f 18//9 17//9 19//9 20//9
f 20//10 19//10 21//10 22//10
f 9//11 7//11 23//11 24//11
f 22//12 21//12 25//12 26//12
f 26//13 25//13 2//13 1//13
f 1//14 4//14 6//14 8//14 10//14 12//14 14//14 16//14 18//14 20//14 22//14 26//14
f 23//15 27//15 28//15 29//15
f 2//16 25//16 30//16 31//16
f 3//17 2//17 31//17 32//17
f 7//18 5//18 27//18 23//18
f 25//19 21//19 33//19 30//19
f 5//20 3//20 32//20 27//20
f 21//21 19//21 34//21 33//21
f 19//22 17//22 35//22 34//22
f 17//23 15//23 36//23 35//23
f 15//24 13//24 37//24 36//24
f 13//25 11//25 38//25 37//25
f 11//26 9//26 24//26 38//26
f 29//9 28//9 39//9 40//9
f 33//15 34//15 41//15 42//15
f 36//27 37//27 43//27 44//27
f 24//15 23//15 29//15 45//15
f 30//27 33//15 42//15 46//27
f 32//15 31//27 47//27 48//15
f 35//15 36//27 44//27 49//15
f 38//15 24//15 45//15 50//15
f 31//27 30//27 46//27 47//27
f 27//15 32//15 48//15 28//15
f 34//15 35//15 49//15 41//15
f 37//27 38//15 50//15 43//27
f 51//27 52//27 53//27 54//27
f 42//4 41//4 55//4 56//4
f 44//1 43//1 51//1 57//1
f 45//10 29//10 40//10 58//10
f 46//5 42//5 56//5 59//5
f 48//7 47//7 60//7 61//7
f 49//2 44//2 57//2 62//2
f 50//12 45//12 58//12 52//12
f 47//6 46//6 59//6 60//6
f 28//8 48//8 61//8 39//8
f 41//3 49//3 62//3 55//3
f 43//13 50//13 52//13 51//13
f 54//6 53//6 63//6 64//6
f 40//15 39//15 65//15 66//15
f 56//27 55//27 67//27 68//27
f 57//27 51//27 54//27 69//27
f 58//15 40//15 66//15 70//15
f 59//27 56//27 68//27 71//27
f 61//27 60//27 72//27 73//27
f 62//27 57//27 69//27 74//27
f 52//27 58//15 70//15 53//27
f 60//27 59//27 71//27 72//27
f 39//15 61//27 73//27 65//15
f 55//27 62//27 74//27 67//27
f 66//3 65//3 75//3 76//3
f 68//10 67//10 77//10 78//10
f 69//7 54//7 64//7 79//7
f 70//4 66//4 76//4 80//4
f 71//12 68//12 78//12 81//12
f 73//1 72//1 82//1 83//1
f 74//8 69//8 79//8 84//8
f 53//5 70//5 80//5 63//5
f 72//13 71//13 81//13 82//13
f 65//2 73//2 83//2 75//2
f 67//9 74//9 84//9 77//9
usemtl wheelhub.001
f 83//27 82//27 81//27 78//27 77//27 84//27 79//27 64//27 63//27 80//27 76//27 75//27
