# Blender v2.82 (sub 7) OBJ File: ''
# www.blender.org
mtllib rettilineo_strada.mtl
o Объект_Куб
v -369.176605 0.000096 -195.952286
v -369.176605 8.426846 -195.952286
v 289.342285 8.426846 -195.952286
v 289.342285 0.000096 -195.952286
v 289.342285 8.426640 226.996536
v 289.342285 -0.000111 226.996536
v -369.176605 8.426640 226.996536
v -369.176605 -0.000111 226.996536
vt 0.659691 0.778485
vt 0.653247 0.778485
vt 0.653247 0.000000
vt 0.659691 0.000000
vt 0.666134 0.000000
vt 0.666134 0.500000
vt 0.659691 0.500000
vt 0.646804 0.000000
vt 0.653247 0.000000
vt 0.653247 0.778485
vt 0.646804 0.778485
vt 0.659691 0.500000
vt 0.666134 0.500000
vt 0.666134 1.000000
vt 0.659691 1.000000
vt 0.646804 0.778485
vt 0.323402 0.778485
vt 0.323402 0.000000
vt 0.646804 0.000000
vt 0.323402 0.778485
vt 0.000000 0.778485
vt 0.000000 0.000000
vt 0.323402 0.000000
vn 0.0000 0.0000 -1.0000
vn 1.0000 0.0000 0.0000
vn 0.0000 0.0000 1.0000
vn -1.0000 0.0000 0.0000
vn 0.0000 1.0000 0.0000
vn 0.0000 -1.0000 -0.0000
usemtl Материал.3
s 1
f 1/1/1 2/2/1 3/3/1 4/4/1
f 4/4/2 3/5/2 5/6/2 6/7/2
f 6/8/3 5/9/3 7/10/3 8/11/3
f 8/12/4 7/13/4 2/14/4 1/15/4
f 2/16/5 7/17/5 5/18/5 3/19/5
f 8/20/6 1/21/6 4/22/6 6/23/6
