# Blender v2.82 (sub 7) OBJ File: ''
# www.blender.org
mtllib rettilineo_strada.mtl
o Объект_Куб
v -369.176605 0.000064 -195.952286
v -369.176605 8.426814 -195.952286
v 289.342285 8.426814 -195.952286
v 289.342285 0.000064 -195.952286
v 289.342285 8.426677 226.996536
v 289.342285 -0.000074 226.996536
v -369.176605 8.426677 226.996536
v -369.176605 -0.000074 226.996536
vt 0.689777 0.396027
vt 0.689777 0.402175
vt 0.203656 0.402174
vt 0.203656 0.396026
vt 0.584530 0.218142
vt 0.560878 0.219422
vt 0.764003 0.389879
vt 0.778547 0.396027
vt 0.278118 0.408417
vt 0.202527 0.402080
vt 0.689777 0.402176
vt 0.387554 0.410585
vt 0.421766 0.272257
vt 0.425020 0.396027
vt 0.294514 0.396026
vt 0.297769 0.272256
vt 0.829525 0.016358
vt 0.829522 0.984115
vt 0.206130 0.984114
vt 0.206132 0.016357
vt 0.387554 0.719168
vt 0.276989 0.716905
vn 0.0000 0.0000 -1.0000
vn 1.0000 0.0000 0.0000
vn 0.0000 0.0000 1.0000
vn -1.0000 0.0000 0.0000
vn 0.0000 1.0000 0.0000
vn 0.0000 -1.0000 -0.0000
usemtl Материал.3
s 1
f 1/1/1 2/2/1 3/3/1 4/4/1
f 4/5/2 3/6/2 5/7/2 6/8/2
f 6/9/3 5/10/3 7/11/3 8/12/3
f 8/13/4 7/14/4 2/15/4 1/16/4
f 2/17/5 7/18/5 5/19/5 3/20/5
f 8/12/6 1/21/6 4/22/6 6/9/6
